<?xml version="1.0" encoding="UTF-8" standalone="no"?>
<!DOCTYPE svg PUBLIC "-//W3C//DTD SVG 1.1//EN" "http://www.w3.org/Graphics/SVG/1.1/DTD/svg11.dtd">
<svg width="100%" height="100%" viewBox="0 0 292 292" version="1.1" xmlns="http://www.w3.org/2000/svg" xmlns:xlink="http://www.w3.org/1999/xlink" xml:space="preserve" xmlns:serif="http://www.serif.com/" style="fill-rule:evenodd;clip-rule:evenodd;stroke-linejoin:round;stroke-miterlimit:2;">
    <path d="M292,146C292,65.42 226.58,0 146,0C65.42,0 0,65.42 0,146C0,226.58 65.42,292 146,292C226.58,292 292,226.58 292,146Z"/>
    <g transform="matrix(1,0,0,1,-20.2801,4.94205)">
        <path d="M135.863,69.645L68.878,107.126C68.878,107.126 65.239,109.385 65.541,114.579C65.843,119.773 65.192,203.53 65.192,203.53C65.192,203.53 64.936,221.009 80.732,212.005C96.528,203.002 117.949,190.846 117.949,190.846C117.949,190.846 124.121,187.661 124.051,193.916C123.98,200.171 123.868,203.343 123.868,203.343C123.868,203.343 126.186,219.221 139.323,211.919C152.46,204.616 176.12,190.498 176.12,190.498C176.12,190.498 182.216,186.705 182.453,193.087C182.69,199.468 182.46,205.234 182.46,205.234C182.46,205.234 183.433,219.631 198.152,211.442C212.871,203.254 264.485,173.348 264.485,173.348C264.485,173.348 267.598,173.191 267.355,164.912C267.112,156.633 266.828,75.495 266.828,75.495C266.828,75.495 267.271,60.797 249.149,71.341C231.027,81.886 216.336,90.736 216.336,90.736C216.336,90.736 208.39,95.211 208.295,87.358C208.2,79.505 208.051,75.54 208.051,75.54C208.051,75.54 206.435,62.343 193.478,69.891C180.522,77.439 156.733,91.136 156.733,91.136C156.733,91.136 150.373,94.866 150.363,87.073C150.354,79.28 151.304,62.677 135.863,69.645Z" style="fill:white;"/>
    </g>
</svg>
